<?xml version="1.0" encoding="UTF-8" standalone="no"?>
<!-- Created with Inkscape (http://www.inkscape.org/) -->

<svg
   xmlns:dc="http://purl.org/dc/elements/1.1/"
   xmlns:cc="http://creativecommons.org/ns#"
   xmlns:rdf="http://www.w3.org/1999/02/22-rdf-syntax-ns#"
   xmlns:svg="http://www.w3.org/2000/svg"
   xmlns="http://www.w3.org/2000/svg"
   xmlns:sodipodi="http://sodipodi.sourceforge.net/DTD/sodipodi-0.dtd"
   xmlns:inkscape="http://www.inkscape.org/namespaces/inkscape"
   width="34"
   height="34"
   id="svg3532"
   version="1.1"
   inkscape:version="0.48.4 r9939"
   sodipodi:docname="crm_icon@34.svg">
  <defs
     id="defs3534" />
  <sodipodi:namedview
     id="base"
     pagecolor="#ffffff"
     bordercolor="#666666"
     borderopacity="1.0"
     inkscape:pageopacity="0.0"
     inkscape:pageshadow="2"
     inkscape:zoom="10.5"
     inkscape:cx="18.45672"
     inkscape:cy="18.327015"
     inkscape:document-units="px"
     inkscape:current-layer="layer1"
     showgrid="false"
     inkscape:window-width="1366"
     inkscape:window-height="718"
     inkscape:window-x="0"
     inkscape:window-y="25"
     inkscape:window-maximized="1" />
  <metadata
     id="metadata3537">
    <rdf:RDF>
      <cc:Work
         rdf:about="">
        <dc:format>image/svg+xml</dc:format>
        <dc:type
           rdf:resource="http://purl.org/dc/dcmitype/StillImage" />
        <dc:title></dc:title>
      </cc:Work>
    </rdf:RDF>
  </metadata>
  <g
     inkscape:label="Layer 1"
     inkscape:groupmode="layer"
     id="layer1"
     transform="translate(0,-1018.3622)">
    <path
       inkscape:connector-curvature="0"
       d="m 22.85119,1037.1539 -3.773809,0 0,3.7738 3.773809,0 0,-3.7738 z m -5.660714,0 -3.773809,0 0,3.7738 3.773809,0 0,-3.7738 z m -5.660714,0 -3.7738099,0 0,3.7738 3.7738099,0 0,-3.7738 z m 11.321428,-5.6607 -3.773809,0 0,3.7738 3.773809,0 0,-3.7738 z m -5.660714,0 -3.773809,0 0,3.7738 3.773809,0 0,-3.7738 z m -5.660714,0 -3.7738099,0 0,3.7738 3.7738099,0 0,-3.7738 z m 18.869047,-5.6608 0,22.6429 -26.4166663,0 0,1.8869 28.3035713,0 0,-24.5298 -1.886905,0 z m -3.773809,3.7738 -22.6428573,0 0,15.0953 22.6428573,0 0,-15.0953 z m 1.886905,16.9822 -26.4166671,0 0,-22.6429 4.7172619,0 c 0,1.5605 1.2689434,2.8304 2.830357,2.8304 1.5604702,0 2.8303572,-1.2699 2.8303572,-2.8304 l 5.660715,0 c 0,1.5605 1.268943,2.8304 2.830357,2.8304 1.56047,0 2.830357,-1.2699 2.830357,-2.8304 l 4.717262,0 0,22.6429 z m -7.547619,-20.756 c 1.042515,0 1.886904,-0.8443 1.886904,-1.8869 l 0,-1.8869 c 0,-1.0425 -0.844389,-1.8869 -1.886904,-1.8869 -1.043459,0 -1.886905,0.8444 -1.886905,1.8869 l 0,1.8869 c 0,1.0435 0.843446,1.8869 1.886905,1.8869 m -13.2083339,-1.8869 0,-1.8869 c 0,-1.0425 0.8453333,-1.8869 1.8869047,-1.8869 1.0406282,0 1.8869052,0.8444 1.8869052,1.8869 l 0,1.8869 c 0,1.0435 -0.846277,1.8869 -1.8869052,1.8869 -1.0415714,0 -1.8869047,-0.8434 -1.8869047,-1.8869"
       style="fill:#565d67;fill-opacity:1;fill-rule:nonzero;stroke:none"
       id="path48" />
  </g>
</svg>
