<?xml version="1.0" encoding="UTF-8" standalone="no"?>
<!-- Created with Inkscape (http://www.inkscape.org/) -->

<svg
   xmlns:dc="http://purl.org/dc/elements/1.1/"
   xmlns:cc="http://creativecommons.org/ns#"
   xmlns:rdf="http://www.w3.org/1999/02/22-rdf-syntax-ns#"
   xmlns:svg="http://www.w3.org/2000/svg"
   xmlns="http://www.w3.org/2000/svg"
   xmlns:sodipodi="http://sodipodi.sourceforge.net/DTD/sodipodi-0.dtd"
   xmlns:inkscape="http://www.inkscape.org/namespaces/inkscape"
   width="34"
   height="34"
   id="svg3532"
   version="1.1"
   inkscape:version="0.48.4 r9939"
   sodipodi:docname="crm_icon@34.svg">
  <defs
     id="defs3534" />
  <sodipodi:namedview
     id="base"
     pagecolor="#ffffff"
     bordercolor="#666666"
     borderopacity="1.0"
     inkscape:pageopacity="0.0"
     inkscape:pageshadow="2"
     inkscape:zoom="15.882353"
     inkscape:cx="16.244444"
     inkscape:cy="22.037037"
     inkscape:document-units="px"
     inkscape:current-layer="layer1"
     showgrid="false"
     inkscape:window-width="1366"
     inkscape:window-height="718"
     inkscape:window-x="0"
     inkscape:window-y="25"
     inkscape:window-maximized="1" />
  <metadata
     id="metadata3537">
    <rdf:RDF>
      <cc:Work
         rdf:about="">
        <dc:format>image/svg+xml</dc:format>
        <dc:type
           rdf:resource="http://purl.org/dc/dcmitype/StillImage" />
        <dc:title></dc:title>
      </cc:Work>
    </rdf:RDF>
  </metadata>
  <g
     inkscape:label="Layer 1"
     inkscape:groupmode="layer"
     id="layer1"
     transform="translate(0,-1018.3622)">
    <path
       inkscape:connector-curvature="0"
       d="m 14.198176,1039.0137 c -3.255176,0 -9.7655293,1.6276 -9.7655293,4.8828 l 0,3.2552 19.5310603,0 0,-3.2552 c 0,-3.2552 -6.510354,-4.8828 -9.765531,-4.8828 m 10.774636,0.2605 c 1.350898,1.1719 2.246072,2.7018 2.246072,4.6223 l 0,3.2552 4.882764,0 0,-3.2552 c 0,-2.5065 -3.857384,-4.0689 -7.128836,-4.6223 m -10.774636,-3.5156 c 2.556653,0 4.882833,-2.3263 4.882765,-4.8829 -7e-5,-2.5565 -2.3262,-4.8826 -4.882765,-4.8826 -2.556564,0 -4.8826947,2.3261 -4.8827647,4.8826 -6.81e-5,2.5566 2.3261107,4.8829 4.8827647,4.8829 m 8.137941,0 c 2.556654,0 4.882834,-2.3263 4.882767,-4.8829 -7.1e-5,-2.5565 -2.326202,-4.8826 -4.882767,-4.8826 -0.520826,0 -1.02538,0.081 -1.49738,0.2279 0.927726,1.3183 1.49738,2.9295 1.49738,4.6547 0,1.7253 -0.569654,3.3204 -1.49738,4.6386 0.472,0.1629 0.976554,0.2443 1.49738,0.2443"
       id="path4-2"
       style="fill:#565d67;fill-opacity:1"
       sodipodi:nodetypes="csccsccsccsccsssccsscscc" />
    <rect
       style="fill:#565d67;fill-opacity:1;stroke:none"
       id="rect4531"
       width="1.6706508"
       height="7.0167336"
       x="3.6804497"
       y="1025.1622" />
    <rect
       style="fill:#565d67;fill-opacity:1;stroke:none"
       id="rect4531-4"
       width="1.6706508"
       height="7.0167336"
       x="-1029.5059"
       y="1.0074072"
       transform="matrix(0,-1,1,0,0,0)" />
  </g>
</svg>
