<?xml version="1.0" encoding="UTF-8" standalone="no"?>
<!-- Created with Inkscape (http://www.inkscape.org/) -->

<svg
   xmlns:dc="http://purl.org/dc/elements/1.1/"
   xmlns:cc="http://creativecommons.org/ns#"
   xmlns:rdf="http://www.w3.org/1999/02/22-rdf-syntax-ns#"
   xmlns:svg="http://www.w3.org/2000/svg"
   xmlns="http://www.w3.org/2000/svg"
   xmlns:sodipodi="http://sodipodi.sourceforge.net/DTD/sodipodi-0.dtd"
   xmlns:inkscape="http://www.inkscape.org/namespaces/inkscape"
   width="34"
   height="34"
   id="svg3532"
   version="1.1"
   inkscape:version="0.48.4 r9939"
   sodipodi:docname="content_icon@34.svg">
  <defs
     id="defs3534" />
  <sodipodi:namedview
     id="base"
     pagecolor="#ffffff"
     bordercolor="#666666"
     borderopacity="1.0"
     inkscape:pageopacity="0.0"
     inkscape:pageshadow="2"
     inkscape:zoom="10.5"
     inkscape:cx="32.694815"
     inkscape:cy="18.327015"
     inkscape:document-units="px"
     inkscape:current-layer="layer1"
     showgrid="false"
     inkscape:window-width="1366"
     inkscape:window-height="718"
     inkscape:window-x="0"
     inkscape:window-y="25"
     inkscape:window-maximized="1" />
  <metadata
     id="metadata3537">
    <rdf:RDF>
      <cc:Work
         rdf:about="">
        <dc:format>image/svg+xml</dc:format>
        <dc:type
           rdf:resource="http://purl.org/dc/dcmitype/StillImage" />
        <dc:title></dc:title>
      </cc:Work>
    </rdf:RDF>
  </metadata>
  <g
     inkscape:label="Layer 1"
     inkscape:groupmode="layer"
     id="layer1"
     transform="translate(0,-1018.3622)">
    <path
       inkscape:connector-curvature="0"
       d="m 10.191993,1026.8039 c -0.9922368,0 -1.7975296,0.8044 -1.7975296,1.7976 0,0.993 0.8052928,1.7975 1.7975296,1.7975 0.992235,0 1.79753,-0.8045 1.79753,-1.7975 0,-0.9932 -0.805295,-1.7976 -1.79753,-1.7976 m 3.976135,10.1218 -2.185797,-2.9317 -5.3629278,7.1902 5.1193638,0 2.429361,-4.2585 z m 13.996462,4.2585 -7.177535,-12.5827 -7.177534,12.5827 14.356868,0 -0.0017,0 z m 0,-19.7729 -21.5676563,0 c -1.9853707,0 -3.5950588,1.6097 -3.5950588,3.5951 l 0,21.5703 c 0,1.9854 1.6096881,3.5951 3.5950588,3.5951 l 21.5676563,0 c 1.985372,0 3.59506,-1.6097 3.59506,-3.5951 l 0,-21.5703 c 0,-1.9854 -1.609688,-3.5951 -3.59506,-3.5951 m 0,1.7975 c 0.992238,0 1.79753,0.8071 1.79753,1.7976 l 0,16.1778 c 0,0.9922 -0.805292,1.7975 -1.79753,1.7975 l -21.5676563,0 c -0.9922358,0 -1.7975297,-0.8053 -1.7975297,-1.7975 l 0,-16.1778 c 0,-0.9905 0.8052939,-1.7976 1.7975297,-1.7976 l 21.5676563,0 z"
       style="fill:#565d67;fill-opacity:1;fill-rule:nonzero;stroke:none"
       id="path344" />
  </g>
</svg>
