<?xml version="1.0" encoding="UTF-8" standalone="no"?>
<!-- Created with Inkscape (http://www.inkscape.org/) -->

<svg
   xmlns:dc="http://purl.org/dc/elements/1.1/"
   xmlns:cc="http://creativecommons.org/ns#"
   xmlns:rdf="http://www.w3.org/1999/02/22-rdf-syntax-ns#"
   xmlns:svg="http://www.w3.org/2000/svg"
   xmlns="http://www.w3.org/2000/svg"
   xmlns:sodipodi="http://sodipodi.sourceforge.net/DTD/sodipodi-0.dtd"
   xmlns:inkscape="http://www.inkscape.org/namespaces/inkscape"
   width="51"
   height="51"
   id="svg4595"
   version="1.1"
   inkscape:version="0.48.4 r9939"
   sodipodi:docname="chat_icon.svg">
  <defs
     id="defs4597" />
  <sodipodi:namedview
     id="base"
     pagecolor="#ffffff"
     bordercolor="#666666"
     borderopacity="1.0"
     inkscape:pageopacity="0.0"
     inkscape:pageshadow="2"
     inkscape:zoom="5.12"
     inkscape:cx="25.496279"
     inkscape:cy="30.620687"
     inkscape:document-units="px"
     inkscape:current-layer="layer1"
     showgrid="false"
     inkscape:window-width="1366"
     inkscape:window-height="718"
     inkscape:window-x="0"
     inkscape:window-y="25"
     inkscape:window-maximized="1" />
  <metadata
     id="metadata4600">
    <rdf:RDF>
      <cc:Work
         rdf:about="">
        <dc:format>image/svg+xml</dc:format>
        <dc:type
           rdf:resource="http://purl.org/dc/dcmitype/StillImage" />
        <dc:title></dc:title>
      </cc:Work>
    </rdf:RDF>
  </metadata>
  <g
     inkscape:label="Layer 1"
     inkscape:groupmode="layer"
     id="layer1"
     transform="translate(0,-1001.3622)">
    <path
       inkscape:connector-curvature="0"
       d="m 46.268114,1014.2687 -1.800993,-1.8011 -2.258874,2.2607 c 0.315429,1.4907 -0.105143,3.1051 -1.265104,4.2617 -1.821344,1.8213 -4.772125,1.8213 -6.593471,0 -1.82304,-1.8214 -1.82304,-4.7738 0,-6.5953 1.156571,-1.1581 2.769326,-1.5787 4.259978,-1.2652 l 2.258876,-2.2587 -1.797603,-1.7994 c -1.243059,-1.2414 -14.046737,-1.2414 -15.291491,0 l -19.8601107,19.8601 c -1.2396667,1.2413 -1.2396667,3.2545 0,4.4975 l 17.9895867,17.988 c 1.239668,1.2412 3.25434,1.2412 4.497398,0 l 19.860114,-19.8619 c 1.239666,-1.2414 1.239666,-14.0483 0,-15.2897 l 0.0016,0 z"
       style="fill:#3590cc;fill-opacity:1;fill-rule:nonzero;stroke:none"
       id="path300" />
    <rect
       style="fill:#ffffff;fill-opacity:1;stroke:none"
       id="rect4531"
       width="1.8732625"
       height="23.55135"
       x="738.93195"
       y="704.70905"
       transform="matrix(0.71187533,0.70230586,-0.70230586,0.71187533,0,0)" />
    <path
       inkscape:connector-curvature="0"
       d="m 37.197685,1016.1417 c 0.496886,0.4968 1.304111,0.4968 1.800993,0 l 9.593432,-9.5935 c 0.496884,-0.4967 0.496884,-1.3024 0,-1.7991 -0.496884,-0.497 -1.30411,-0.497 -1.800995,0 l -9.59343,9.5932 c -0.496884,0.497 -0.496884,1.3024 0,1.7994"
       style="fill:#3590cc;fill-opacity:1;fill-rule:nonzero;stroke:none"
       id="path304" />
    <path
       sodipodi:type="arc"
       style="fill:none;stroke:#ffffff;stroke-opacity:1"
       id="path4338"
       sodipodi:cx="12.372222"
       sodipodi:cy="14.764815"
       sodipodi:rx="2.612963"
       sodipodi:ry="2.612963"
       d="m 14.985185,14.764815 a 2.612963,2.612963 0 1 1 -5.225926,0 2.612963,2.612963 0 1 1 5.225926,0 z"
       transform="matrix(1.1828623,0.19715656,-0.19715656,1.1828623,9.6344512,1002.9859)" />
    <path
       sodipodi:type="arc"
       style="fill:none;stroke:#ffffff;stroke-opacity:1"
       id="path4338-3"
       sodipodi:cx="12.372222"
       sodipodi:cy="14.764815"
       sodipodi:rx="2.612963"
       sodipodi:ry="2.612963"
       d="m 14.985185,14.764815 a 2.612963,2.612963 0 1 1 -5.225926,0 2.612963,2.612963 0 1 1 5.225926,0 z"
       transform="matrix(1.1828623,0.19715656,-0.19715656,1.1828623,14.183389,1016.6328)" />
  </g>
</svg>
