<?xml version="1.0" encoding="UTF-8" standalone="no"?>
<!-- Created with Inkscape (http://www.inkscape.org/) -->

<svg
   xmlns:dc="http://purl.org/dc/elements/1.1/"
   xmlns:cc="http://creativecommons.org/ns#"
   xmlns:rdf="http://www.w3.org/1999/02/22-rdf-syntax-ns#"
   xmlns:svg="http://www.w3.org/2000/svg"
   xmlns="http://www.w3.org/2000/svg"
   xmlns:sodipodi="http://sodipodi.sourceforge.net/DTD/sodipodi-0.dtd"
   xmlns:inkscape="http://www.inkscape.org/namespaces/inkscape"
   width="34"
   height="34"
   id="svg3532"
   version="1.1"
   inkscape:version="0.48.4 r9939"
   sodipodi:docname="agenda_icon@34.svg">
  <defs
     id="defs3534" />
  <sodipodi:namedview
     id="base"
     pagecolor="#ffffff"
     bordercolor="#666666"
     borderopacity="1.0"
     inkscape:pageopacity="0.0"
     inkscape:pageshadow="2"
     inkscape:zoom="10.5"
     inkscape:cx="18.45672"
     inkscape:cy="18.327015"
     inkscape:document-units="px"
     inkscape:current-layer="layer1"
     showgrid="false"
     inkscape:window-width="1366"
     inkscape:window-height="718"
     inkscape:window-x="0"
     inkscape:window-y="25"
     inkscape:window-maximized="1" />
  <metadata
     id="metadata3537">
    <rdf:RDF>
      <cc:Work
         rdf:about="">
        <dc:format>image/svg+xml</dc:format>
        <dc:type
           rdf:resource="http://purl.org/dc/dcmitype/StillImage" />
        <dc:title></dc:title>
      </cc:Work>
    </rdf:RDF>
  </metadata>
  <g
     inkscape:label="Layer 1"
     inkscape:groupmode="layer"
     id="layer1"
     transform="translate(0,-1018.3622)">
    <path
       inkscape:connector-curvature="0"
       d="m 7.7142855,1043.6796 c 0,-3.2699 6.5396825,-5.0682 9.8095225,-5.0682 3.269842,0 9.809525,1.7983 9.809525,5.0682 v 1.635 H 7.7142855 M 22.42857,1030.6002 a 4.904762,4.904762 0 0 1 -4.904762,4.9048 4.904762,4.904762 0 0 1 -4.90476,-4.9048 4.904762,4.904762 0 0 1 4.90476,-4.9047 4.904762,4.904762 0 0 1 4.904762,4.9047 m -19.6190465,-6.5397 v 22.889 a 3.2698413,3.2698413 0 0 0 3.2698413,3.2698 H 28.968253 a 3.2698413,3.2698413 0 0 0 3.269842,-3.2698 v -22.889 a 3.2698413,3.2698413 0 0 0 -3.269842,-3.2698 H 6.0793648 c -1.8147619,0 -3.2698413,1.4714 -3.2698413,3.2698 z"
       id="path4"
       style="fill:#565d67;fill-opacity:1" />
  </g>
</svg>
