<?xml version="1.0" encoding="UTF-8" standalone="no"?>
<!-- Created with Inkscape (http://www.inkscape.org/) -->

<svg
   xmlns:dc="http://purl.org/dc/elements/1.1/"
   xmlns:cc="http://creativecommons.org/ns#"
   xmlns:rdf="http://www.w3.org/1999/02/22-rdf-syntax-ns#"
   xmlns:svg="http://www.w3.org/2000/svg"
   xmlns="http://www.w3.org/2000/svg"
   xmlns:sodipodi="http://sodipodi.sourceforge.net/DTD/sodipodi-0.dtd"
   xmlns:inkscape="http://www.inkscape.org/namespaces/inkscape"
   width="51"
   height="51"
   id="svg4595"
   version="1.1"
   inkscape:version="0.48.4 r9939"
   sodipodi:docname="New document 7">
  <defs
     id="defs4597" />
  <sodipodi:namedview
     id="base"
     pagecolor="#ffffff"
     bordercolor="#666666"
     borderopacity="1.0"
     inkscape:pageopacity="0.0"
     inkscape:pageshadow="2"
     inkscape:zoom="3.959798"
     inkscape:cx="9.1729831"
     inkscape:cy="60.501997"
     inkscape:document-units="px"
     inkscape:current-layer="layer1"
     showgrid="false"
     inkscape:window-width="1366"
     inkscape:window-height="718"
     inkscape:window-x="0"
     inkscape:window-y="25"
     inkscape:window-maximized="1" />
  <metadata
     id="metadata4600">
    <rdf:RDF>
      <cc:Work
         rdf:about="">
        <dc:format>image/svg+xml</dc:format>
        <dc:type
           rdf:resource="http://purl.org/dc/dcmitype/StillImage" />
        <dc:title></dc:title>
      </cc:Work>
    </rdf:RDF>
  </metadata>
  <g
     inkscape:label="Layer 1"
     inkscape:groupmode="layer"
     id="layer1"
     transform="translate(0,-1001.3622)">
    <path
       inkscape:connector-curvature="0"
       id="path288"
       style="fill:#3590cc;fill-opacity:1;fill-rule:nonzero;stroke:none"
       d="m 15.029138,1031.3498 -6.4205529,-12.8411 28.3162439,0 -2.335476,12.8411 -19.560215,0 z m 33.329091,-25.6823 -6.420553,0 c -1.552169,0 -2.881224,1.1093 -3.157307,2.6372 l -0.69021,3.7834 -34.6774064,0 c -1.1123609,0 -2.1460699,0.5762 -2.7303402,1.5233 -0.5842704,0.9469 -0.6372399,2.1252 -0.1412522,3.122 l 9.6308298,19.2616 c 0.544142,1.0883 1.654898,1.7738 2.871592,1.7738 l 20.37402,0 -0.582665,3.2102 -16.581079,0 c -1.772072,0 -3.210276,1.4366 -3.210276,3.2103 0,1.7736 1.438204,3.2103 3.210276,3.2103 l 19.261659,0 c 1.552169,0 2.881224,-1.1092 3.157307,-2.6373 l 5.943827,-32.6774 3.739973,0 c 1.773677,0 3.210276,-1.4365 3.210276,-3.2103 0,-1.7737 -1.436599,-3.2103 -3.210276,-3.2103 l 0.0015,0 z" />
  </g>
</svg>
