<?xml version="1.0" encoding="UTF-8" standalone="no"?>
<!-- Created with Inkscape (http://www.inkscape.org/) -->

<svg
   xmlns:dc="http://purl.org/dc/elements/1.1/"
   xmlns:cc="http://creativecommons.org/ns#"
   xmlns:rdf="http://www.w3.org/1999/02/22-rdf-syntax-ns#"
   xmlns:svg="http://www.w3.org/2000/svg"
   xmlns="http://www.w3.org/2000/svg"
   xmlns:sodipodi="http://sodipodi.sourceforge.net/DTD/sodipodi-0.dtd"
   xmlns:inkscape="http://www.inkscape.org/namespaces/inkscape"
   width="34"
   height="34"
   id="svg3532"
   version="1.1"
   inkscape:version="0.48.4 r9939"
   sodipodi:docname="coupon_icon@34.svg">
  <defs
     id="defs3534" />
  <sodipodi:namedview
     id="base"
     pagecolor="#ffffff"
     bordercolor="#666666"
     borderopacity="1.0"
     inkscape:pageopacity="0.0"
     inkscape:pageshadow="2"
     inkscape:zoom="5.6152598"
     inkscape:cx="9.0559789"
     inkscape:cy="27.01053"
     inkscape:document-units="px"
     inkscape:current-layer="layer1"
     showgrid="false"
     inkscape:window-width="1366"
     inkscape:window-height="718"
     inkscape:window-x="0"
     inkscape:window-y="25"
     inkscape:window-maximized="1" />
  <metadata
     id="metadata3537">
    <rdf:RDF>
      <cc:Work
         rdf:about="">
        <dc:format>image/svg+xml</dc:format>
        <dc:type
           rdf:resource="http://purl.org/dc/dcmitype/StillImage" />
        <dc:title></dc:title>
      </cc:Work>
    </rdf:RDF>
  </metadata>
  <g
     inkscape:label="Layer 1"
     inkscape:groupmode="layer"
     id="layer1"
     transform="translate(0,-1018.3622)">
    <rect
       style="fill:#ffffff;fill-opacity:1;stroke:none"
       id="rect4531"
       width="1.2524873"
       height="15.746734"
       x="738.34351"
       y="719.04633"
       transform="matrix(0.71187533,0.70230586,-0.70230586,0.71187533,0,0)" />
    <path
       sodipodi:type="arc"
       style="fill:none;stroke:#ffffff;stroke-opacity:1"
       id="path4338"
       sodipodi:cx="12.372222"
       sodipodi:cy="14.764815"
       sodipodi:rx="2.612963"
       sodipodi:ry="2.612963"
       d="m 14.985185,14.764815 a 2.612963,2.612963 0 1 1 -5.225926,0 2.612963,2.612963 0 1 1 5.225926,0 z"
       transform="matrix(0.79087686,0.1318214,-0.1318214,0.79087686,6.261816,1018.6232)" />
    <path
       sodipodi:type="arc"
       style="fill:none;stroke:#ffffff;stroke-opacity:1"
       id="path4338-3"
       sodipodi:cx="12.372222"
       sodipodi:cy="14.764815"
       sodipodi:rx="2.612963"
       sodipodi:ry="2.612963"
       d="m 14.985185,14.764815 a 2.612963,2.612963 0 1 1 -5.225926,0 2.612963,2.612963 0 1 1 5.225926,0 z"
       transform="matrix(0.79087686,0.1318214,-0.1318214,0.79087686,9.303294,1027.7477)" />
    <path
       inkscape:connector-curvature="0"
       id="path288"
       style="fill:#565d67;fill-opacity:1;fill-rule:nonzero;stroke:none"
       d="m 23.155473,1038.6359 3.793882,-7.5877 -16.731968,0 1.380024,7.5877 11.558062,0 z m -19.6940407,-15.1755 3.7938817,0 c 0.9171708,0 1.7025047,0.6554 1.8656411,1.5583 l 0.4078426,2.2356 20.4907563,0 c 0.657291,0 1.268105,0.3404 1.613348,0.9001 0.345244,0.5595 0.376544,1.2558 0.08346,1.8448 l -5.690823,11.3816 c -0.321532,0.6431 -0.977874,1.0481 -1.696814,1.0481 l -12.038936,0 0.344295,1.8969 9.797701,0 c 1.04711,0 1.89694,0.8489 1.89694,1.897 0,1.048 -0.84983,1.8969 -1.89694,1.8969 l -11.381647,0 c -0.917171,0 -1.7025045,-0.6555 -1.8656409,-1.5584 l -3.5121858,-19.3089 -2.2099366,0 c -1.0480594,0 -1.8969406,-0.8489 -1.8969406,-1.897 0,-1.0481 0.8488812,-1.8969 1.8969406,-1.8969 l -8.864e-4,0 z" />
  </g>
</svg>
