<?xml version="1.0" encoding="UTF-8" standalone="no"?>
<!-- Created with Inkscape (http://www.inkscape.org/) -->

<svg
   xmlns:dc="http://purl.org/dc/elements/1.1/"
   xmlns:cc="http://creativecommons.org/ns#"
   xmlns:rdf="http://www.w3.org/1999/02/22-rdf-syntax-ns#"
   xmlns:svg="http://www.w3.org/2000/svg"
   xmlns="http://www.w3.org/2000/svg"
   xmlns:sodipodi="http://sodipodi.sourceforge.net/DTD/sodipodi-0.dtd"
   xmlns:inkscape="http://www.inkscape.org/namespaces/inkscape"
   width="34"
   height="34"
   id="svg3532"
   version="1.1"
   inkscape:version="0.48.4 r9939"
   sodipodi:docname="content_icon@34.svg">
  <defs
     id="defs3534" />
  <sodipodi:namedview
     id="base"
     pagecolor="#ffffff"
     bordercolor="#666666"
     borderopacity="1.0"
     inkscape:pageopacity="0.0"
     inkscape:pageshadow="2"
     inkscape:zoom="10.5"
     inkscape:cx="32.694815"
     inkscape:cy="18.327015"
     inkscape:document-units="px"
     inkscape:current-layer="layer1"
     showgrid="false"
     inkscape:window-width="1366"
     inkscape:window-height="718"
     inkscape:window-x="0"
     inkscape:window-y="25"
     inkscape:window-maximized="1" />
  <metadata
     id="metadata3537">
    <rdf:RDF>
      <cc:Work
         rdf:about="">
        <dc:format>image/svg+xml</dc:format>
        <dc:type
           rdf:resource="http://purl.org/dc/dcmitype/StillImage" />
        <dc:title></dc:title>
      </cc:Work>
    </rdf:RDF>
  </metadata>
  <g
     inkscape:label="Layer 1"
     inkscape:groupmode="layer"
     id="layer1"
     transform="translate(0,-1018.3622)">
    <path
       inkscape:connector-curvature="0"
       d="m 28.814291,1023.1495 -9.474025,0 c -0.181456,0 -0.329645,-0.1472 -0.329645,-0.3286 0,-0.1815 0.148189,-0.3287 0.329645,-0.3287 l 9.474025,0 c 0.181456,0 0.328638,0.1472 0.328638,0.3287 0,0.1814 -0.147182,0.3286 -0.328638,0.3286 m 2.439577,-0.3346 c 0,-0.8641 -0.700622,-1.5637 -1.563547,-1.5637 l -11.225076,0 c -0.863933,0 -1.564555,0.6996 -1.564555,1.5637 l 0,11.6948 0.891151,0 0,-9.9277 12.571884,0 0,17.9875 -1.776254,0 0,4.4819 1.10285,0 c 0.864941,0 1.563547,-0.7008 1.563547,-1.5636 l 0,-22.672 0,0 z"
       style="fill:#565d67;fill-opacity:1;fill-rule:nonzero;stroke:none"
       id="path316" />
    <path
       inkscape:connector-curvature="0"
       d="m 6.1205833,1036.526 17.9863337,0 0,12.5708 -17.9863337,0 0,-12.5708 z m -3.3529056,6.2855 c 0,-0.5192 0.4213813,-0.9407 0.9405474,-0.9407 0.5201743,0 0.9415557,0.4215 0.9415557,0.9407 0,0.519 -0.4213814,0.9405 -0.9415557,0.9405 -0.5191661,0 -0.9405474,-0.4215 -0.9405474,-0.9405 m 23.4300173,-4.7381 0,9.475 c 0,0.1815 -0.14819,0.3287 -0.328638,0.3287 -0.183473,0 -0.328637,-0.1472 -0.328637,-0.3287 l 0,-9.475 c 0,-0.1814 0.145164,-0.3286 0.328637,-0.3286 0.180448,0 0.328638,0.1472 0.328638,0.3286 m 1.239949,10.3511 0,-11.2261 c 0,-0.864 -0.700622,-1.5636 -1.562539,-1.5636 l -22.6729408,0 c -0.8639327,0 -1.5625387,0.6996 -1.5625387,1.5636 l 0,11.2261 c 0,0.8639 0.698606,1.5635 1.5625387,1.5635 l 22.6729408,0 c 0.861917,0 1.562539,-0.7005 1.562539,-1.5635"
       style="fill:#565d67;fill-opacity:1;fill-rule:nonzero;stroke:none"
       id="path318" />
  </g>
</svg>
