<?xml version="1.0" encoding="UTF-8" standalone="no"?>
<!-- Created with Inkscape (http://www.inkscape.org/) -->

<svg
   xmlns:dc="http://purl.org/dc/elements/1.1/"
   xmlns:cc="http://creativecommons.org/ns#"
   xmlns:rdf="http://www.w3.org/1999/02/22-rdf-syntax-ns#"
   xmlns:svg="http://www.w3.org/2000/svg"
   xmlns="http://www.w3.org/2000/svg"
   xmlns:sodipodi="http://sodipodi.sourceforge.net/DTD/sodipodi-0.dtd"
   xmlns:inkscape="http://www.inkscape.org/namespaces/inkscape"
   width="108"
   height="102"
   id="svg3236"
   version="1.1"
   inkscape:version="0.48.4 r9939"
   inkscape:export-filename="/home/mosquito/Downloads/new_agenda.svg.png"
   inkscape:export-xdpi="90"
   inkscape:export-ydpi="90"
   sodipodi:docname="new_agenda.svg">
  <defs
     id="defs3238" />
  <sodipodi:namedview
     id="base"
     pagecolor="#ffffff"
     bordercolor="#666666"
     borderopacity="1.0"
     inkscape:pageopacity="0.0"
     inkscape:pageshadow="2"
     inkscape:zoom="3.959798"
     inkscape:cx="-6.243951"
     inkscape:cy="51.304804"
     inkscape:document-units="px"
     inkscape:current-layer="layer1"
     showgrid="false"
     inkscape:window-width="1366"
     inkscape:window-height="718"
     inkscape:window-x="0"
     inkscape:window-y="25"
     inkscape:window-maximized="1" />
  <metadata
     id="metadata3241">
    <rdf:RDF>
      <cc:Work
         rdf:about="">
        <dc:format>image/svg+xml</dc:format>
        <dc:type
           rdf:resource="http://purl.org/dc/dcmitype/StillImage" />
        <dc:title />
      </cc:Work>
    </rdf:RDF>
  </metadata>
  <g
     inkscape:label="Layer 1"
     inkscape:groupmode="layer"
     id="layer1"
     transform="translate(0,-950.3622)">
    <rect
       style="fill:#ffffff;fill-opacity:1;stroke:none"
       id="rect3517"
       width="84.839104"
       height="79.827507"
       x="2.7347236"
       y="964.76819" />
    <g
       id="g22"
       transform="matrix(2.5057963,0,0,-2.5057963,14.901956,952.91275)">
      <path
         d="m 0,0 c -0.619,0 -1.122,-0.5 -1.122,-1.12 l 0,-3.705 c 0,-0.619 0.503,-1.12 1.122,-1.12 0.62,0 1.121,0.501 1.121,1.12 l 0,3.705 C 1.121,-0.5 0.62,0 0,0"
         style="fill:#fcfdff;fill-opacity:1;fill-rule:nonzero;stroke:none"
         id="path24"
         inkscape:connector-curvature="0" />
    </g>
    <g
       id="g26"
       transform="matrix(2.5057963,0,0,-2.5057963,35.691044,952.91275)">
      <path
         d="m 0,0 c -0.619,0 -1.122,-0.5 -1.122,-1.12 l 0,-3.705 c 0,-0.619 0.503,-1.12 1.122,-1.12 0.618,0 1.121,0.501 1.121,1.12 l 0,3.705 C 1.121,-0.5 0.618,0 0,0"
         style="fill:#fcfdff;fill-opacity:1;fill-rule:nonzero;stroke:none"
         id="path28"
         inkscape:connector-curvature="0" />
    </g>
    <g
       id="g30"
       transform="matrix(2.5057963,0,0,-2.5057963,56.476384,952.91275)">
      <path
         d="m 0,0 c -0.619,0 -1.121,-0.5 -1.121,-1.12 l 0,-3.705 c 0,-0.619 0.502,-1.12 1.121,-1.12 0.619,0 1.122,0.501 1.122,1.12 l 0,3.705 C 1.122,-0.5 0.619,0 0,0"
         style="fill:#fcfdff;fill-opacity:1;fill-rule:nonzero;stroke:none"
         id="path32"
         inkscape:connector-curvature="0" />
    </g>
    <g
       id="g34"
       transform="matrix(2.5057963,0,0,-2.5057963,81.803469,1003.2684)">
      <path
         d="m 0,0 c 0,-0.473 -0.385,-0.857 -0.859,-0.857 l -27.11,0 c -0.474,0 -0.859,0.384 -0.859,0.857 0,0.476 0.385,0.859 0.859,0.859 l 27.11,0 C -0.385,0.859 0,0.476 0,0"
         style="fill:#2f7db4;fill-opacity:1;fill-rule:nonzero;stroke:none"
         id="path36"
         inkscape:connector-curvature="0" />
    </g>
    <g
       id="g38"
       transform="matrix(2.5057963,0,0,-2.5057963,81.803469,1026.7064)">
      <path
         d="m 0,0 c 0,-0.476 -0.385,-0.86 -0.859,-0.86 l -27.11,0 c -0.474,0 -0.859,0.384 -0.859,0.86 0,0.473 0.385,0.857 0.859,0.857 l 27.11,0 C -0.385,0.857 0,0.473 0,0"
         style="fill:#2f7db4;fill-opacity:1;fill-rule:nonzero;stroke:none"
         id="path40"
         inkscape:connector-curvature="0" />
    </g>
    <g
       id="g42"
       transform="matrix(2.5057963,0,0,-2.5057963,19.4169,1036.7787)">
      <path
         d="m 0,0 c 0,-0.275 -0.224,-0.498 -0.498,-0.498 -0.274,0 -0.497,0.223 -0.497,0.498 l 0,17.325 c 0,0.276 0.223,0.498 0.497,0.498 C -0.224,17.823 0,17.601 0,17.325 L 0,0 z"
         style="fill:#2f7db4;fill-opacity:1;fill-rule:nonzero;stroke:none"
         id="path44"
         inkscape:connector-curvature="0" />
    </g>
    <g
       id="g46"
       transform="matrix(2.5057963,0,0,-2.5057963,47.457762,1034.5762)">
      <path
         d="m 0,0 c 0,-0.248 -0.223,-0.449 -0.498,-0.449 -0.274,0 -0.497,0.201 -0.497,0.449 l 0,15.603 c 0,0.247 0.223,0.448 0.497,0.448 C -0.223,16.051 0,15.85 0,15.603 L 0,0 z"
         style="fill:#2f7db4;fill-opacity:1;fill-rule:nonzero;stroke:none"
         id="path48"
         inkscape:connector-curvature="0" />
    </g>
    <g
       id="g50"
       transform="matrix(2.5057963,0,0,-2.5057963,74.457457,1036.7787)">
      <path
         d="m 0,0 c 0,-0.275 -0.225,-0.498 -0.498,-0.498 -0.274,0 -0.497,0.223 -0.497,0.498 l 0,17.325 c 0,0.276 0.223,0.498 0.497,0.498 C -0.225,17.823 0,17.601 0,17.325 L 0,0 z"
         style="fill:#2f7db4;fill-opacity:1;fill-rule:nonzero;stroke:none"
         id="path52"
         inkscape:connector-curvature="0" />
    </g>
    <g
       id="g54"
       transform="matrix(2.5057963,0,0,-2.5057963,4.318475,983.70678)">
      <path
         d="m 0,0 0,-22.576 c 0,-0.828 0.674,-1.503 1.502,-1.503 l 30.012,0 c 0.828,0 1.503,0.675 1.503,1.503 L 33.017,0 0,0 z m 31.514,-25.793 -30.012,0 c -1.773,0 -3.217,1.442 -3.217,3.217 l 0,24.291 36.446,0 0,-24.291 c 0,-1.775 -1.443,-3.217 -3.217,-3.217"
         style="fill:#226a9e;fill-opacity:1;fill-rule:nonzero;stroke:none"
         id="path56"
         inkscape:connector-curvature="0" />
    </g>
    <g
       id="g58"
       transform="matrix(2.5057963,0,0,-2.5057963,89.198575,981.5558)">
      <path
         d="m 0,0 0,6.577 c 0,1.303 -1.056,2.36 -2.359,2.36 l -30.012,0 c -1.304,0 -2.359,-1.057 -2.359,-2.36 L -34.73,0 0,0 z"
         style="fill:#376695;fill-opacity:1;fill-rule:nonzero;stroke:none"
         id="path60"
         inkscape:connector-curvature="0" />
    </g>
    <g
       id="g62"
       transform="matrix(2.5057963,0,0,-2.5057963,4.318475,979.40964)">
      <path
         d="m 0,0 33.017,0 0,5.721 c 0,0.828 -0.675,1.502 -1.503,1.502 l -30.012,0 C 0.674,7.223 0,6.549 0,5.721 L 0,0 z m 34.731,-1.715 -36.446,0 0,7.436 c 0,1.773 1.444,3.217 3.217,3.217 l 30.012,0 c 1.774,0 3.217,-1.444 3.217,-3.217 l 0,-7.436 z"
         style="fill:#376695;fill-opacity:1;fill-rule:nonzero;stroke:none"
         id="path64"
         inkscape:connector-curvature="0" />
    </g>
    <g
       id="g66"
       transform="matrix(2.5057963,0,0,-2.5057963,14.503034,951.71377)">
      <path
         d="m 0,0 c -0.619,0 -1.122,-0.5 -1.122,-1.12 l 0,-3.705 c 0,-0.619 0.503,-1.12 1.122,-1.12 0.62,0 1.121,0.501 1.121,1.12 l 0,3.705 C 1.121,-0.5 0.62,0 0,0"
         style="fill:#fcfdff;fill-opacity:1;fill-rule:nonzero;stroke:none"
         id="path68"
         inkscape:connector-curvature="0" />
    </g>
    <g
       id="g70"
       transform="matrix(2.5057963,0,0,-2.5057963,14.503034,952.78545)">
      <path
         d="m 0,0 c -0.382,0 -0.693,-0.311 -0.693,-0.692 l 0,-3.705 c 0,-0.382 0.311,-0.692 0.693,-0.692 0.382,0 0.692,0.31 0.692,0.692 l 0,3.705 C 0.692,-0.311 0.382,0 0,0 m 0,-5.947 c -0.855,0 -1.549,0.696 -1.549,1.55 l 0,3.705 c 0,0.854 0.694,1.549 1.549,1.549 0.854,0 1.55,-0.695 1.55,-1.549 l 0,-3.705 c 0,-0.854 -0.696,-1.55 -1.55,-1.55"
         style="fill:#376695;fill-opacity:1;fill-rule:nonzero;stroke:none"
         id="path72"
         inkscape:connector-curvature="0" />
    </g>
    <g
       id="g74"
       transform="matrix(2.5057963,0,0,-2.5057963,35.292121,951.71377)">
      <path
         d="m 0,0 c -0.619,0 -1.122,-0.5 -1.122,-1.12 l 0,-3.705 c 0,-0.619 0.503,-1.12 1.122,-1.12 0.618,0 1.121,0.501 1.121,1.12 l 0,3.705 C 1.121,-0.5 0.618,0 0,0"
         style="fill:#fcfdff;fill-opacity:1;fill-rule:nonzero;stroke:none"
         id="path76"
         inkscape:connector-curvature="0" />
    </g>
    <g
       id="g78"
       transform="matrix(2.5057963,0,0,-2.5057963,35.292121,952.78545)">
      <path
         d="m 0,0 c -0.382,0 -0.693,-0.311 -0.693,-0.692 l 0,-3.705 c 0,-0.382 0.311,-0.692 0.693,-0.692 0.38,0 0.691,0.31 0.691,0.692 l 0,3.705 C 0.691,-0.311 0.38,0 0,0 m 0,-5.947 c -0.855,0 -1.549,0.696 -1.549,1.55 l 0,3.705 c 0,0.854 0.694,1.549 1.549,1.549 0.854,0 1.55,-0.695 1.55,-1.549 l 0,-3.705 c 0,-0.854 -0.696,-1.55 -1.55,-1.55"
         style="fill:#376695;fill-opacity:1;fill-rule:nonzero;stroke:none"
         id="path80"
         inkscape:connector-curvature="0" />
    </g>
    <g
       id="g82"
       transform="matrix(2.5057963,0,0,-2.5057963,56.077441,951.71377)">
      <path
         d="m 0,0 c -0.619,0 -1.12,-0.5 -1.12,-1.12 l 0,-3.705 c 0,-0.619 0.501,-1.12 1.12,-1.12 0.619,0 1.122,0.501 1.122,1.12 l 0,3.705 C 1.122,-0.5 0.619,0 0,0"
         style="fill:#fcfdff;fill-opacity:1;fill-rule:nonzero;stroke:none"
         id="path84"
         inkscape:connector-curvature="0" />
    </g>
    <g
       id="g86"
       transform="matrix(2.5057963,0,0,-2.5057963,56.077441,952.78545)">
      <path
         d="m 0,0 c -0.382,0 -0.691,-0.311 -0.691,-0.692 l 0,-3.705 c 0,-0.382 0.309,-0.692 0.691,-0.692 0.382,0 0.692,0.31 0.692,0.692 l 0,3.705 C 0.692,-0.311 0.382,0 0,0 m 0,-5.947 c -0.854,0 -1.55,0.696 -1.55,1.55 l 0,3.705 c 0,0.854 0.696,1.549 1.55,1.549 0.854,0 1.55,-0.695 1.55,-1.549 l 0,-3.705 c 0,-0.854 -0.696,-1.55 -1.55,-1.55"
         style="fill:#226a9e;fill-opacity:1;fill-rule:nonzero;stroke:none"
         id="path88"
         inkscape:connector-curvature="0" />
    </g>
    <g
       id="g90"
       transform="matrix(2.5057963,0,0,-2.5057963,76.865286,951.71377)">
      <path
         d="m 0,0 c 0.619,0 1.121,-0.5 1.121,-1.12 l 0,-3.705 c 0,-0.619 -0.502,-1.12 -1.121,-1.12 -0.619,0 -1.12,0.501 -1.12,1.12 l 0,3.705 C -1.12,-0.5 -0.619,0 0,0"
         style="fill:#ffffff;fill-opacity:1;fill-rule:nonzero;stroke:none"
         id="path92"
         inkscape:connector-curvature="0" />
    </g>
    <g
       id="g94"
       transform="matrix(2.5057963,0,0,-2.5057963,76.865286,952.78545)">
      <path
         d="m 0,0 c -0.381,0 -0.692,-0.311 -0.692,-0.692 l 0,-3.705 c 0,-0.382 0.311,-0.692 0.692,-0.692 0.383,0 0.693,0.31 0.693,0.692 l 0,3.705 C 0.693,-0.311 0.383,0 0,0 m 0,-5.947 c -0.854,0 -1.549,0.696 -1.549,1.55 l 0,3.705 c 0,0.854 0.695,1.549 1.549,1.549 0.854,0 1.55,-0.695 1.55,-1.549 l 0,-3.705 c 0,-0.854 -0.696,-1.55 -1.55,-1.55"
         style="fill:#226a9e;fill-opacity:1;fill-rule:nonzero;stroke:none"
         id="path96"
         inkscape:connector-curvature="0" />
    </g>
    <g
       id="g98"
       transform="matrix(2.5057963,0,0,-2.5057963,106.91403,1031.6459)">
      <path
         d="m 0,0 c 0,-4.111 -3.332,-7.442 -7.442,-7.442 -4.11,0 -7.442,3.331 -7.442,7.442 0,4.109 3.332,7.442 7.442,7.442 C -3.332,7.442 0,4.109 0,0"
         style="fill:#fcfafa;fill-opacity:1;fill-rule:nonzero;stroke:none"
         id="path100"
         inkscape:connector-curvature="0" />
    </g>
    <g
       id="g102"
       transform="matrix(2.5057963,0,0,-2.5057963,106.91403,1031.6459)">
      <path
         d="m 0,0 c 0,-4.111 -3.332,-7.442 -7.442,-7.442 -4.11,0 -7.442,3.331 -7.442,7.442 0,4.109 3.332,7.442 7.442,7.442 C -3.332,7.442 0,4.109 0,0 z"
         style="fill:none;stroke:#376695;stroke-width:1.301;stroke-linecap:butt;stroke-linejoin:miter;stroke-miterlimit:10;stroke-opacity:1;stroke-dasharray:none"
         id="path104"
         inkscape:connector-curvature="0" />
    </g>
    <g
       id="g106"
       transform="matrix(2.5057963,0,0,-2.5057963,88.266158,1031.6459)">
      <path
         d="m 0,0 c 0,-0.129 -0.091,-0.232 -0.204,-0.232 -0.112,0 -0.203,0.103 -0.203,0.232 l 0,4.651 c 0,0.128 0.091,0.233 0.203,0.233 C -0.091,4.884 0,4.779 0,4.651 L 0,0 z"
         style="fill:#fcfafa;fill-opacity:1;fill-rule:nonzero;stroke:none"
         id="path108"
         inkscape:connector-curvature="0" />
    </g>
    <g
       id="g110"
       transform="matrix(2.5057963,0,0,-2.5057963,88.266158,1031.6459)">
      <path
         d="m 0,0 c 0,-0.129 -0.091,-0.232 -0.204,-0.232 -0.112,0 -0.203,0.103 -0.203,0.232 l 0,4.651 c 0,0.128 0.091,0.233 0.203,0.233 C -0.091,4.884 0,4.779 0,4.651 L 0,0 z"
         style="fill:none;stroke:#376695;stroke-width:0.43399999;stroke-linecap:butt;stroke-linejoin:miter;stroke-miterlimit:10;stroke-opacity:1;stroke-dasharray:none"
         id="path112"
         inkscape:connector-curvature="0" />
    </g>
    <g
       id="g114"
       transform="matrix(2.5057963,0,0,-2.5057963,88.053426,1032.6127)">
      <path
         d="m 0,0 c -0.109,0.067 -0.15,0.199 -0.092,0.295 0.059,0.096 0.196,0.12 0.305,0.053 L 4.176,-2.088 C 4.286,-2.155 4.326,-2.287 4.268,-2.383 4.209,-2.479 4.073,-2.501 3.963,-2.434 L 0,0 z"
         style="fill:#fcfafa;fill-opacity:1;fill-rule:nonzero;stroke:none"
         id="path116"
         inkscape:connector-curvature="0" />
    </g>
    <g
       id="g118"
       transform="matrix(2.5057963,0,0,-2.5057963,88.053426,1032.6127)">
      <path
         d="m 0,0 c -0.109,0.067 -0.15,0.199 -0.092,0.295 0.059,0.096 0.196,0.12 0.305,0.053 L 4.176,-2.088 C 4.286,-2.155 4.326,-2.287 4.268,-2.383 4.209,-2.479 4.073,-2.501 3.963,-2.434 L 0,0 z"
         style="fill:none;stroke:#376695;stroke-width:0.43399999;stroke-linecap:butt;stroke-linejoin:miter;stroke-miterlimit:10;stroke-opacity:1;stroke-dasharray:none"
         id="path120"
         inkscape:connector-curvature="0" />
    </g>
  </g>
</svg>
