<?xml version="1.0" encoding="UTF-8" standalone="no"?>
<!-- Created with Inkscape (http://www.inkscape.org/) -->

<svg
   xmlns:dc="http://purl.org/dc/elements/1.1/"
   xmlns:cc="http://creativecommons.org/ns#"
   xmlns:rdf="http://www.w3.org/1999/02/22-rdf-syntax-ns#"
   xmlns:svg="http://www.w3.org/2000/svg"
   xmlns="http://www.w3.org/2000/svg"
   xmlns:sodipodi="http://sodipodi.sourceforge.net/DTD/sodipodi-0.dtd"
   xmlns:inkscape="http://www.inkscape.org/namespaces/inkscape"
   width="112"
   height="102"
   id="svg3236"
   version="1.1"
   inkscape:version="0.48.4 r9939"
   inkscape:export-filename="/home/mosquito/Downloads/new_agenda.svg.png"
   inkscape:export-xdpi="90"
   inkscape:export-ydpi="90"
   sodipodi:docname="new_shopping.svg">
  <defs
     id="defs3238" />
  <sodipodi:namedview
     id="base"
     pagecolor="#ffffff"
     bordercolor="#666666"
     borderopacity="1.0"
     inkscape:pageopacity="0.0"
     inkscape:pageshadow="2"
     inkscape:zoom="2.8"
     inkscape:cx="16.539255"
     inkscape:cy="60.191731"
     inkscape:document-units="px"
     inkscape:current-layer="layer1"
     showgrid="false"
     inkscape:window-width="1366"
     inkscape:window-height="718"
     inkscape:window-x="0"
     inkscape:window-y="25"
     inkscape:window-maximized="1" />
  <metadata
     id="metadata3241">
    <rdf:RDF>
      <cc:Work
         rdf:about="">
        <dc:format>image/svg+xml</dc:format>
        <dc:type
           rdf:resource="http://purl.org/dc/dcmitype/StillImage" />
        <dc:title />
      </cc:Work>
    </rdf:RDF>
  </metadata>
  <g
     inkscape:label="Layer 1"
     inkscape:groupmode="layer"
     id="layer1"
     transform="translate(0,-950.3622)">
    <path
       inkscape:connector-curvature="0"
       d="m 77.894658,1034.1033 -46.293196,0 0,-67.21666 46.293196,0 0,67.21666 z"
       style="fill:#ffffff;fill-opacity:1;fill-rule:nonzero;stroke:none"
       id="path12" />
    <g
       id="g140"
       transform="matrix(2.4977445,0,0,-2.4977445,110.68942,969.02291)">
      <path
         d="m 0,0 c -0.664,0.956 -1.751,1.526 -2.916,1.526 l -21.995,0 c -0.82,0 -1.488,-0.666 -1.488,-1.488 0,-0.821 0.668,-1.487 1.488,-1.487 l 21.995,0 c 0.187,0 0.364,-0.093 0.471,-0.248 0.108,-0.154 0.133,-0.352 0.068,-0.528 l -4.122,-11.094 c -0.083,-0.225 -0.3,-0.375 -0.539,-0.375 l -23.114,0 -3.681,15.709 c -0.458,1.95 -2.177,3.313 -4.182,3.313 l -4.099,0 c -1.233,0 -2.231,-0.997 -2.231,-2.231 0,-1.234 0.998,-2.232 2.231,-2.232 l 3.966,0 4.957,-21.152 c 0.449,-1.913 2.112,-3.251 4.066,-3.304 -1.149,-0.833 -1.901,-2.177 -1.901,-3.703 0,-2.535 2.053,-4.588 4.587,-4.588 2.532,0 4.586,2.053 4.586,4.588 0,1.52 -0.749,2.859 -1.888,3.693 l 8.557,0 c -1.14,-0.834 -1.89,-2.173 -1.89,-3.693 0,-2.535 2.054,-4.588 4.587,-4.588 2.535,0 4.588,2.053 4.588,4.588 0,1.52 -0.749,2.859 -1.89,3.693 l 2.08,0 c 1.234,0 2.232,0.998 2.232,2.231 0,1.234 -0.998,2.232 -2.232,2.232 l -21.167,0 -0.578,2.467 22.416,0 c 1.474,0 2.813,0.93 3.326,2.315 L 0.412,-3.259 C 0.816,-2.169 0.663,-0.951 0,0"
         style="fill:#376695;fill-opacity:1;fill-rule:nonzero;stroke:none"
         id="path142"
         inkscape:connector-curvature="0" />
    </g>
    <g
       id="g144"
       transform="matrix(2.4977445,0,0,-2.4977445,94.568117,983.06183)">
      <path
         d="m 0,0 c 0,-0.222 -0.297,-0.404 -0.664,-0.404 l -20.94,0 c -0.366,0 -0.663,0.182 -0.663,0.404 0,0.225 0.297,0.405 0.663,0.405 l 20.94,0 C -0.297,0.405 0,0.225 0,0"
         style="fill:#508ec4;fill-opacity:1;fill-rule:nonzero;stroke:none"
         id="path146"
         inkscape:connector-curvature="0" />
    </g>
    <g
       id="g148"
       transform="matrix(2.4977445,0,0,-2.4977445,94.568117,994.0661)">
      <path
         d="m 0,0 c 0,-0.224 -0.297,-0.405 -0.664,-0.405 l -20.94,0 c -0.366,0 -0.663,0.181 -0.663,0.405 0,0.222 0.297,0.404 0.663,0.404 l 20.94,0 C -0.297,0.404 0,0.222 0,0"
         style="fill:#508ec4;fill-opacity:1;fill-rule:nonzero;stroke:none"
         id="path150"
         inkscape:connector-curvature="0" />
    </g>
    <g
       id="g152"
       transform="matrix(2.4977445,0,0,-2.4977445,46.533993,998.7958)">
      <path
         d="m 0,0 c 0,-0.13 -0.173,-0.234 -0.385,-0.234 -0.212,0 -0.384,0.104 -0.384,0.234 l 0,8.161 c 0,0.131 0.172,0.235 0.384,0.235 C -0.173,8.396 0,8.292 0,8.161 L 0,0 z"
         style="fill:#508ec4;fill-opacity:1;fill-rule:nonzero;stroke:none"
         id="path154"
         inkscape:connector-curvature="0" />
    </g>
    <g
       id="g156"
       transform="matrix(2.4977445,0,0,-2.4977445,68.122239,997.76016)">
      <path
         d="m 0,0 c 0,-0.117 -0.171,-0.212 -0.385,-0.212 -0.211,0 -0.383,0.095 -0.383,0.212 l 0,7.349 c 0,0.117 0.172,0.212 0.383,0.212 C -0.171,7.561 0,7.466 0,7.349 L 0,0 z"
         style="fill:#508ec4;fill-opacity:1;fill-rule:nonzero;stroke:none"
         id="path158"
         inkscape:connector-curvature="0" />
    </g>
    <g
       id="g160"
       transform="matrix(2.4977445,0,0,-2.4977445,88.911465,998.7958)">
      <path
         d="m 0,0 c 0,-0.13 -0.174,-0.234 -0.385,-0.234 -0.212,0 -0.384,0.104 -0.384,0.234 l 0,8.161 c 0,0.131 0.172,0.235 0.384,0.235 C -0.174,8.396 0,8.292 0,8.161 L 0,0 z"
         style="fill:#508ec4;fill-opacity:1;fill-rule:nonzero;stroke:none"
         id="path162"
         inkscape:connector-curvature="0" />
    </g>
  </g>
</svg>
