<?xml version="1.0" encoding="UTF-8" standalone="no"?>
<!-- Created with Inkscape (http://www.inkscape.org/) -->

<svg
   xmlns:dc="http://purl.org/dc/elements/1.1/"
   xmlns:cc="http://creativecommons.org/ns#"
   xmlns:rdf="http://www.w3.org/1999/02/22-rdf-syntax-ns#"
   xmlns:svg="http://www.w3.org/2000/svg"
   xmlns="http://www.w3.org/2000/svg"
   xmlns:sodipodi="http://sodipodi.sourceforge.net/DTD/sodipodi-0.dtd"
   xmlns:inkscape="http://www.inkscape.org/namespaces/inkscape"
   width="108"
   height="102"
   id="svg3236"
   version="1.1"
   inkscape:version="0.48.4 r9939"
   inkscape:export-filename="/home/mosquito/Downloads/new_agenda.svg.png"
   inkscape:export-xdpi="90"
   inkscape:export-ydpi="90"
   sodipodi:docname="new_mobile_marketing.svg">
  <defs
     id="defs3238" />
  <sodipodi:namedview
     id="base"
     pagecolor="#ffffff"
     bordercolor="#666666"
     borderopacity="1.0"
     inkscape:pageopacity="0.0"
     inkscape:pageshadow="2"
     inkscape:zoom="2.8"
     inkscape:cx="3.8648084"
     inkscape:cy="35.669477"
     inkscape:document-units="px"
     inkscape:current-layer="layer1"
     showgrid="false"
     inkscape:window-width="1366"
     inkscape:window-height="718"
     inkscape:window-x="0"
     inkscape:window-y="25"
     inkscape:window-maximized="1" />
  <metadata
     id="metadata3241">
    <rdf:RDF>
      <cc:Work
         rdf:about="">
        <dc:format>image/svg+xml</dc:format>
        <dc:type
           rdf:resource="http://purl.org/dc/dcmitype/StillImage" />
        <dc:title />
      </cc:Work>
    </rdf:RDF>
  </metadata>
  <g
     inkscape:label="Layer 1"
     inkscape:groupmode="layer"
     id="layer1"
     transform="translate(0,-950.3622)">
    <path
       inkscape:connector-curvature="0"
       d="m 76.713997,1035.0758 -47.685896,0 0,-69.23883 47.685896,0 0,69.23883 z"
       style="fill:#ffffff;fill-opacity:1;fill-rule:nonzero;stroke:none"
       id="path12" />
    <g
       id="g122"
       transform="matrix(2.5728874,0,0,-2.5728874,76.715026,1035.0761)">
      <path
         d="m 0,0 -18.096,0 0,26.822 L 0,26.822 0,12.954 0,0 z m -9.049,-4.233 c -0.623,0 -1.13,0.507 -1.13,1.131 0,0.623 0.507,1.13 1.13,1.13 0.625,0 1.132,-0.507 1.132,-1.13 0,-0.624 -0.507,-1.131 -1.132,-1.131 m -2.935,33.81 5.87,0 0,-0.413 -5.87,0 0,0.413 z m 11.342,3.027 -16.813,0 c -1.117,0 -2.024,-0.875 -2.024,-1.948 l 0,-34.98 c 0,-1.074 0.907,-1.948 2.024,-1.948 l 16.813,0 c 1.116,0 2.024,0.874 2.024,1.948 l 0,17.78 -1.382,0 0,11.283 1.382,0 0,5.917 c 0,1.073 -0.908,1.948 -2.024,1.948"
         style="fill:#376695;fill-opacity:1;fill-rule:nonzero;stroke:none"
         id="path124"
         inkscape:connector-curvature="0" />
    </g>
    <g
       id="g128"
       transform="matrix(2.5728874,0,0,-2.5728874,88.162564,977.84968)">
      <path
         d="M 0,0 C 0.573,-0.584 1.029,-1.407 1.285,-2.316 1.54,-3.224 1.58,-4.164 1.396,-4.961 l 0.828,-0.191 c 0.215,0.934 0.172,2.024 -0.121,3.067 -0.294,1.043 -0.825,1.995 -1.496,2.68 L 0,0 z"
         style="fill:#2f7db4;fill-opacity:1;fill-rule:nonzero;stroke:none"
         id="path130"
         inkscape:connector-curvature="0" />
    </g>
    <g
       id="g132"
       transform="matrix(2.5728874,0,0,-2.5728874,95.466477,982.68259)">
      <path
         d="m 0,0 c 0.355,-1.263 0.41,-2.57 0.154,-3.682 l 0.828,-0.191 c 0.288,1.248 0.229,2.706 -0.164,4.103 -0.393,1.398 -1.103,2.671 -2,3.587 L -1.789,3.223 C -0.991,2.407 -0.355,1.263 0,0"
         style="fill:#2f7db4;fill-opacity:1;fill-rule:nonzero;stroke:none"
         id="path134"
         inkscape:connector-curvature="0" />
    </g>
    <g
       id="g136"
       transform="matrix(2.5728874,0,0,-2.5728874,81.963984,972.56332)">
      <path
         d="m 0,0 -2.239,-2.613 1.845,-6.56 3.274,-1.063 c 0.434,0.122 0.689,0.573 0.566,1.01 L 1.01,-0.566 C 0.888,-0.132 0.435,0.123 0,0 m -2.51,-9.203 1.182,0.333 -1.55,5.511 -1.182,-0.333 1.55,-5.511 z m -7.861,0.763 c 0.414,-1.471 1.689,-2.139 3.125,-2.015 0.003,-0.025 0.006,-0.051 0.014,-0.077 l 0.885,-3.148 c 0.123,-0.437 0.574,-0.69 1.008,-0.568 l 1.182,0.333 c 0.435,0.123 0.687,0.575 0.565,1.01 l -0.886,3.148 1.183,0.333 -1.551,5.511 -3.151,-0.887 c -1.738,-0.489 -2.862,-1.902 -2.374,-3.64"
         style="fill:#376695;fill-opacity:1;fill-rule:evenodd;stroke:none"
         id="path138"
         inkscape:connector-curvature="0" />
    </g>
  </g>
</svg>
