<?xml version="1.0" encoding="utf-8"?>
<!-- Generator: Adobe Illustrator 18.1.1, SVG Export Plug-In . SVG Version: 6.00 Build 0)  -->
<svg version="1.1" id="Calque_2" xmlns="http://www.w3.org/2000/svg" xmlns:xlink="http://www.w3.org/1999/xlink" x="0px" y="0px"
	 viewBox="0 0 720 86" style="enable-background:new 0 0 720 86;" xml:space="preserve">
<style type="text/css">
	.Style_x0020_graphique{fill:url(#SVGID_1_);}
	.st0{fill:url(#waterapps-txt_1_);}
	.st1{fill:url(#white-txt-edge_1_);}
	.st2{fill:#FFFFFF;}
</style>
<linearGradient id="SVGID_1_" gradientUnits="userSpaceOnUse" x1="0" y1="0" x2="4.500007e-11" y2="1">
	<stop  offset="0" style="stop-color:#FF5C53"/>
	<stop  offset="1" style="stop-color:#FF3B30"/>
</linearGradient>
<linearGradient id="waterapps-txt_1_" gradientUnits="userSpaceOnUse" x1="476.9699" y1="-20.6667" x2="476.9699" y2="113.4146">
	<stop  offset="0" style="stop-color:#FF5C53"/>
	<stop  offset="1" style="stop-color:#FF3B30"/>
</linearGradient>
<path id="waterapps-txt" class="st0" d="M315.8,20.3l-25.2,48.3h-16.4l-1-32.8H273l-14,32.8h-16.4l-5.1-48.3h15.7l1.2,33.5h0.2
	l13.9-33.5h15.3l1,33.5h0.2l14.1-33.5H315.8z M360.9,31.6c0,6.4-3.6,19.8-4.8,24.3c-0.8,3.4-1.5,6.4-1.5,9c0,1.7,0.4,2.9,0.7,3.7
	h-15.6c-0.4-2.3-0.4-2.1-0.4-4.7h-0.2c-3,4.3-7.7,6.1-14.6,6.1c-9,0-15.7-3.6-15.7-13.6c0-12.9,11.6-15.5,23.9-16.4
	c5.4-0.3,12.9,0.1,12.9-6.2c0-2.8-2-4.7-6.7-4.7c-5,0-8.1,1.5-8.8,6.1h-15c2.5-12.6,11.8-16.3,23.7-16.3
	C352.2,18.9,360.9,22.2,360.9,31.6z M343.1,46.5L343.1,46.5c-4.1,3.4-18.4-0.6-18.4,8.8c0,3.8,3.3,5,6.4,5
	C340.7,60.3,342.5,50.9,343.1,46.5z M384.3,54.6c0-1.7,0.4-3.6,0.8-5.8l3.8-18.3H399l2.1-10.2h-10l3-14.5h-15.8l-3.1,14.5h-8
	l-2.1,10.2h8l-3.7,17.5c-1.2,5.7-1.9,9.4-1.9,12.8c0,7.4,7.6,8.4,15,8.4c3.1,0,6.1-0.4,9.2-0.6l2.4-11.8c-1.7,0.1-3.3,0.3-4.9,0.3
	C386.5,57.1,384.3,56.9,384.3,54.6z M449.4,40.1c0,2.9-0.2,5.6-0.6,8.3H414c-0.1,0.9-0.2,1.7-0.2,3.3c0.5,5,3.4,7.7,8.6,7.7
	c5.4,0,8-2,9.2-5.3h15.5c-3.8,11.6-13.6,16-25.3,16c-13.4,0-23.2-6.8-23.2-21.1c0-17.1,11.3-30.1,28.8-30.1
	C439.8,18.9,449.4,26.1,449.4,40.1z M426.8,29.6c-6.5,0-10,3.8-11.6,9.9h19C434.6,34.1,432.1,29.6,426.8,29.6z M492.8,33.7l3.1-14
	c-1.6-0.7-3.2-0.8-5.3-0.8c-6.4,0-11.9,3.6-15.2,9.3h-0.2l1.8-7.9h-15.4l-10.1,48.3h15.8l4.7-22.2c1.6-8.2,4.9-13.7,13.6-13.7
	C488.6,32.8,490.7,33.2,492.8,33.7z M538.7,2.1l10.9,66.5h-17.4l-1.6-11.9h-23.4l-6.7,11.9h-18.2l38.8-66.5H538.7z M529.1,43.9
	l-2.5-23.9h-0.2l-12.5,23.9H529.1z M609.4,39.9c0,14.3-8.4,30.2-24.9,30.2c-6.2,0-11.2-2-14.1-7.6h-0.2l-4.6,22.5h-15.8l13.4-64.6
	h15.4l-1.1,5.7h0.2c3.6-4.7,7.8-7.1,14.4-7.1C604.3,18.9,609.4,28.8,609.4,39.9z M593.5,40.7c0-4.3-1.1-9.7-8.3-9.7
	c-8.4,0-11.8,10.4-11.8,17.5c0,5.1,2.3,9.4,8.1,9.4C590.3,57.9,593.5,47.9,593.5,40.7z M666.5,39.9c0,14.3-8.4,30.2-24.9,30.2
	c-6.2,0-11.2-2-14.1-7.6h-0.2l-4.6,22.5H607l13.4-64.6h15.4l-1.1,5.7h0.2c3.6-4.7,7.8-7.1,14.4-7.1
	C661.5,18.9,666.5,28.8,666.5,39.9z M650.7,40.7c0-4.3-1.1-9.7-8.3-9.7c-8.4,0-11.8,10.4-11.8,17.5c0,5.1,2.3,9.4,8.1,9.4
	C647.5,57.9,650.7,47.9,650.7,40.7z M696.1,28.7c1.8,0,3.8,0.6,4.8,1.7c0.9,1,1.3,2.5,1.2,4.2h14.3c0.7-12.4-9.9-15.6-19.9-15.6
	c-10.3,0-23.4,3.4-23.4,16.4c0,9.1,6.2,11.6,13.3,13.2c7.7,2,11.6,2.1,11.6,6.3c0,3.9-4.4,4.9-7.1,4.9c-2.5,0-4.8-0.6-6.2-2
	c-1.1-1.2-1.9-2.8-1.8-5h-14.5C668.8,65.4,676.7,70,689,70c11.4,0,24.8-2.7,24.8-17.5c0-9.5-5.1-11.6-14.1-13.8
	c-5.7-1.4-10.8-2-10.8-5.5C688.9,29.8,692.8,28.7,696.1,28.7z"/>
<linearGradient id="white-txt-edge_1_" gradientUnits="userSpaceOnUse" x1="118.4338" y1="-14.3283" x2="118.4338" y2="94.2454">
	<stop  offset="0" style="stop-color:#FF5C53"/>
	<stop  offset="1" style="stop-color:#FF3B30"/>
</linearGradient>
<path id="white-txt-edge" class="st1" d="M205.1,71.1c-14.7,0-23.5-8-23.5-21.5c0-5.7,1.2-10.8,3.4-15.1h-8.8L173,49.8
	c-0.4,2-0.7,3.6-0.7,4.9c0,0,0,0.1,0,0.1c0.2,0.1,0.9,0.2,2.6,0.2c0.9,0,1.9-0.1,2.8-0.1c0.5,0,1.1-0.1,1.6-0.1l2.6-0.1l-3.1,15
	l-1.5,0.1c-1,0.1-2,0.1-3,0.2c-1.9,0.1-3.8,0.3-5.7,0.3c-4.4,0-15.9,0-15.9-9.8c0-3.3,0.6-6.9,1.8-12.3l2.9-13.8H150l2.8-13.5h7.4
	l2.9-13.5h18.8L179.1,21h9.3l-2.5,11.9c4.9-8.2,13.6-13.2,24.3-13.2c13.7,0,22.5,8.5,22.5,21.6c0,2.7-0.2,5.3-0.5,8L232,51h-32.2
	c0,0.3,0,0.6,0,0.9c0.4,3.6,2.2,5.3,5.9,5.3c4.7,0,6-1.8,6.7-3.6l0.5-1.3h18.5l-0.9,2.6C227,65.5,218.2,71.1,205.1,71.1z
	 M214.6,38.8c-0.1-1.6-0.6-2.9-1.5-3.8c-0.8-0.9-2-1.3-3.4-1.3c-3.8,0-6.4,1.6-8,5.2H214.6z M123.9,69.8L134.1,21h18.8l-10.2,48.8
	H123.9z M100.6,69.8l5.7-26.7c0.4-1.7,0.7-3.4,0.7-4.8c0-2.8-1.8-3.4-3.4-3.4c-6.3,0-7.8,4.8-9.4,12.7c-0.1,0.5-4.6,22.2-4.6,22.2
	H70.9l9.6-45.6L56.8,69.8H38.5l-0.7-23.7L27.6,69.8H9.3L4.1,21h18.8l0.9,24.2l10-24.2h17.4L52,45.2L62.1,21h19.1l3.6-16.8h18.8
	L99.5,23c3.1-1.9,7.3-3.3,12.3-3.3c9,0,14.9,5.7,14.9,14.6c0,3.2-1,7.7-1.6,10.1l-5.7,25.4H100.6z M134.4,19.4l3.2-15.2h18.8
	l-3.2,15.2H134.4z"/>
<path id="white-txt" class="st2" d="M78.9,23L55.6,67.8H40.4l-1-30.4h-0.2l-13,30.4H11.1L6.4,23H21l1.1,31.1h0.2L35.1,23h14.2
	l1,31.1h0.2l13-31.1H78.9z M111.8,21.7c-7.9,0-13.3,3.7-15.3,6.7l-0.2-0.2l4.8-22.1H86.4l-13,61.7h14.7l4-19
	c1.6-7.3,2.6-15.9,11.7-15.9c3.1,0,5.4,1.9,5.4,5.4c0,1.7-0.4,3.6-0.9,5.7l-5.1,23.8h14.7l5.4-23.8c0.5-2.2,1.6-6.7,1.6-9.7
	C124.7,26.6,119.8,21.7,111.8,21.7z M139.2,6.1l-2.3,11.2h14.7l2.3-11.2H139.2z M126.4,67.8H141l9.3-44.8h-14.7L126.4,67.8z
	 M170.3,54.8c0-1.6,0.3-3.4,0.8-5.4l3.5-16.9h9.3l2-9.5h-9.2l2.8-13.5h-14.7L161.9,23h-7.4l-2,9.5h7.4l-3.5,16.2
	c-1.1,5.3-1.7,8.7-1.7,11.8c0,6.8,7.1,7.8,13.9,7.8c2.9,0,5.6-0.3,8.6-0.5l2.2-11c-1.6,0.1-3,0.3-4.6,0.3
	C172.4,57.1,170.3,56.9,170.3,54.8z M197.9,49c-0.1,0.9-0.2,1.6-0.2,3c0.4,4.7,3.1,7.2,7.9,7.2c5,0,7.4-1.9,8.6-4.9h14.3
	C225,65,216,69.1,205.1,69.1c-12.4,0-21.5-6.3-21.5-19.5c0-15.9,10.5-27.9,26.7-27.9c11.6,0,20.5,6.7,20.5,19.6
	c0,2.7-0.2,5.2-0.5,7.7H197.9z M198.9,40.8h17.6c0.4-5-1.9-9.2-6.8-9.2C203.7,31.6,200.5,35.2,198.9,40.8z"/>
</svg>
